<svg width="200" height="200" viewBox="0 0 200 200" fill="none" xmlns="http://www.w3.org/2000/svg">

  <!-- Center blob: 4 overlapping circles in cardinal positions -->
  <circle cx="100" cy="86"  r="22" fill="black"/>
  <circle cx="100" cy="114" r="22" fill="black"/>
  <circle cx="86"  cy="100" r="22" fill="black"/>
  <circle cx="114" cy="100" r="22" fill="black"/>

  <!-- Top-right arcs: 275°→355°, centred at (100,100), CW sweep -->
  <path d="M 104.4,50.2 A 50,50 0 0 1 149.8,95.6" stroke="black" stroke-width="9" fill="none" stroke-linecap="round"/>
  <path d="M 105.7,35.3 A 65,65 0 0 1 164.8,94.3" stroke="black" stroke-width="9" fill="none" stroke-linecap="round"/>
  <path d="M 107.0,20.3 A 80,80 0 0 1 179.7,93.0" stroke="black" stroke-width="9" fill="none" stroke-linecap="round"/>

  <!-- Top-left arcs: 185°→265° -->
  <path d="M 50.2,95.6  A 50,50 0 0 1 95.6,50.2"  stroke="black" stroke-width="9" fill="none" stroke-linecap="round"/>
  <path d="M 35.3,94.3  A 65,65 0 0 1 94.3,35.3"  stroke="black" stroke-width="9" fill="none" stroke-linecap="round"/>
  <path d="M 20.3,93.0  A 80,80 0 0 1 93.0,20.3"  stroke="black" stroke-width="9" fill="none" stroke-linecap="round"/>

  <!-- Bottom-right arcs: 5°→85° -->
  <path d="M 149.8,104.4 A 50,50 0 0 1 104.4,149.8" stroke="black" stroke-width="9" fill="none" stroke-linecap="round"/>
  <path d="M 164.8,105.7 A 65,65 0 0 1 105.7,164.8" stroke="black" stroke-width="9" fill="none" stroke-linecap="round"/>
  <path d="M 179.7,107.0 A 80,80 0 0 1 107.0,179.7" stroke="black" stroke-width="9" fill="none" stroke-linecap="round"/>

  <!-- Bottom-left arcs: 95°→175° -->
  <path d="M 95.6,149.8  A 50,50 0 0 1 50.2,104.4"  stroke="black" stroke-width="9" fill="none" stroke-linecap="round"/>
  <path d="M 94.3,164.8  A 65,65 0 0 1 35.3,105.7"  stroke="black" stroke-width="9" fill="none" stroke-linecap="round"/>
  <path d="M 93.0,179.7  A 80,80 0 0 1 20.3,107.0"  stroke="black" stroke-width="9" fill="none" stroke-linecap="round"/>

</svg>
